<?xml version="1.0" encoding="utf-8" ?>
<svg baseProfile="full" fill-rule="nonzero" height="100%" version="1.1" width="100%" xmlns="http://www.w3.org/2000/svg" xmlns:ev="http://www.w3.org/2001/xml-events" xmlns:xlink="http://www.w3.org/1999/xlink"><defs /><path d="M425,1415 V2345 H1190 V1415 H425 " fill="rgb(20, 20, 20)" fill-opacity="0.2" stroke="rgb(20, 20, 20)" stroke-opacity="0.4" stroke-width="5" /><path d="M985,880 V780 H635 V880 H985 " fill="rgb(183, 73, 73)" fill-opacity="0.5" stroke="rgb(183, 73, 73)" stroke-opacity="0.7" stroke-width="5" /><path d="M900,1170 V1070 H720 V1170 H900 " fill="rgb(183, 73, 73)" fill-opacity="0.5" stroke="rgb(183, 73, 73)" stroke-opacity="0.7" stroke-width="5" /><path d="M900,1985 V1585 H720 V1985 H900 " fill="rgb(183, 73, 73)" fill-opacity="0.5" stroke="rgb(183, 73, 73)" stroke-opacity="0.7" stroke-width="5" /><path d="M985,2280 V2180 H635 V2280 H985 " fill="rgb(183, 73, 73)" fill-opacity="0.5" stroke="rgb(183, 73, 73)" stroke-opacity="0.7" stroke-width="5" /><path d="M565,925 H535 V1315 H565 V925 " fill="rgb(50, 90, 255)" fill-opacity="0.5" stroke="rgb(50, 90, 255)" stroke-opacity="0.7" stroke-width="5" /><path d="M695,925 H665 V1315 H695 V925 " fill="rgb(50, 90, 255)" fill-opacity="0.5" stroke="rgb(50, 90, 255)" stroke-opacity="0.7" stroke-width="5" /><path d="M955,925 H925 V1315 H955 V925 " fill="rgb(50, 90, 255)" fill-opacity="0.5" stroke="rgb(50, 90, 255)" stroke-opacity="0.7" stroke-width="5" /><path d="M1085,925 H1055 V1315 H1085 V925 " fill="rgb(50, 90, 255)" fill-opacity="0.5" stroke="rgb(50, 90, 255)" stroke-opacity="0.7" stroke-width="5" /><path d="M825,990 H795 V2065 H825 V990 " fill="rgb(50, 90, 255)" fill-opacity="0.5" stroke="rgb(50, 90, 255)" stroke-opacity="0.7" stroke-width="5" /><path d="M565,1525 H535 V2045 H565 V1525 " fill="rgb(50, 90, 255)" fill-opacity="0.5" stroke="rgb(50, 90, 255)" stroke-opacity="0.7" stroke-width="5" /><path d="M695,1525 H665 V2045 H695 V1525 " fill="rgb(50, 90, 255)" fill-opacity="0.5" stroke="rgb(50, 90, 255)" stroke-opacity="0.7" stroke-width="5" /><path d="M925,1525 V2045 H955 V1525 H925 " fill="rgb(50, 90, 255)" fill-opacity="0.5" stroke="rgb(50, 90, 255)" stroke-opacity="0.7" stroke-width="5" /><path d="M1055,1525 V2045 H1085 V1525 H1055 " fill="rgb(50, 90, 255)" fill-opacity="0.5" stroke="rgb(50, 90, 255)" stroke-opacity="0.7" stroke-width="5" /><path d="M705,810 H665 V850 H705 V810 " fill="rgb(50, 50, 50)" fill-opacity="0.5" stroke="rgb(50, 50, 50)" stroke-opacity="0.7" stroke-width="5" /><path d="M790,810 V850 H830 V810 H790 " fill="rgb(50, 50, 50)" fill-opacity="0.5" stroke="rgb(50, 50, 50)" stroke-opacity="0.7" stroke-width="5" /><path d="M725,1100 V1140 H765 V1100 H725 " fill="rgb(50, 50, 50)" fill-opacity="0.5" stroke="rgb(50, 50, 50)" stroke-opacity="0.7" stroke-width="5" /><path d="M790,1365 V1405 H830 V1365 H790 " fill="rgb(50, 50, 50)" fill-opacity="0.5" stroke="rgb(50, 50, 50)" stroke-opacity="0.7" stroke-width="5" /><path d="M725,1615 V1655 H765 V1615 H725 " fill="rgb(50, 50, 50)" fill-opacity="0.5" stroke="rgb(50, 50, 50)" stroke-opacity="0.7" stroke-width="5" /><path d="M725,1765 V1805 H765 V1765 H725 " fill="rgb(50, 50, 50)" fill-opacity="0.5" stroke="rgb(50, 50, 50)" stroke-opacity="0.7" stroke-width="5" /><path d="M725,1915 V1955 H765 V1915 H725 " fill="rgb(50, 50, 50)" fill-opacity="0.5" stroke="rgb(50, 50, 50)" stroke-opacity="0.7" stroke-width="5" /><path d="M665,2210 V2250 H705 V2210 H665 " fill="rgb(50, 50, 50)" fill-opacity="0.5" stroke="rgb(50, 50, 50)" stroke-opacity="0.7" stroke-width="5" /><path d="M915,810 V850 H955 V810 H915 " fill="rgb(50, 50, 50)" fill-opacity="0.5" stroke="rgb(50, 50, 50)" stroke-opacity="0.7" stroke-width="5" /><path d="M855,1100 V1140 H895 V1100 H855 " fill="rgb(50, 50, 50)" fill-opacity="0.5" stroke="rgb(50, 50, 50)" stroke-opacity="0.7" stroke-width="5" /><path d="M855,1615 V1655 H895 V1615 H855 " fill="rgb(50, 50, 50)" fill-opacity="0.5" stroke="rgb(50, 50, 50)" stroke-opacity="0.7" stroke-width="5" /><path d="M855,1765 V1805 H895 V1765 H855 " fill="rgb(50, 50, 50)" fill-opacity="0.5" stroke="rgb(50, 50, 50)" stroke-opacity="0.7" stroke-width="5" /><path d="M855,1915 V1955 H895 V1915 H855 " fill="rgb(50, 50, 50)" fill-opacity="0.5" stroke="rgb(50, 50, 50)" stroke-opacity="0.7" stroke-width="5" /><path d="M790,2210 V2250 H830 V2210 H790 " fill="rgb(50, 50, 50)" fill-opacity="0.5" stroke="rgb(50, 50, 50)" stroke-opacity="0.7" stroke-width="5" /><path d="M915,2210 V2250 H955 V2210 H915 " fill="rgb(50, 50, 50)" fill-opacity="0.5" stroke="rgb(50, 50, 50)" stroke-opacity="0.7" stroke-width="5" /><path d="M210,705 V905 H635 V1170 H770 V905 H1430 V705 H210 " fill="rgb(107, 193, 57)" fill-opacity="0.5" stroke="rgb(107, 193, 57)" stroke-opacity="0.7" stroke-width="5" /><path d="M835,1425 V1345 H465 V1425 H835 " fill="rgb(107, 193, 57)" fill-opacity="0.5" stroke="rgb(107, 193, 57)" stroke-opacity="0.7" stroke-width="5" /><path d="M980,1360 V1070 H850 V1170 H900 V1585 H850 V1985 H980 V1410 H1190 V1360 H980 " fill="rgb(107, 193, 57)" fill-opacity="0.5" stroke="rgb(107, 193, 57)" stroke-opacity="0.7" stroke-width="5" /><path d="M770,2180 V1585 H680 V2180 H275 V2280 H985 V2180 H770 " fill="rgb(107, 193, 57)" fill-opacity="0.5" stroke="rgb(107, 193, 57)" stroke-opacity="0.7" stroke-width="5" /></svg>